REM DIRINDEX 1\2,1\3
REM DIRNAME folder01,folder02,folder03
TITLE ""
FILE "DISC1Track01.mp3" MP3
  TRACK 01 AUDIO
    TITLE "0:"
    INDEX 01 00:00:00
  TRACK 02 AUDIO
    TITLE "3:cjc133_0001"
    INDEX 01 00:00:13
  TRACK 03 AUDIO
    TITLE "0:"
    INDEX 01 00:01:40
  TRACK 04 AUDIO
    TITLE "3:cjc133_0002"
    INDEX 01 00:02:16
  TRACK 05 AUDIO
    TITLE "0:"
    INDEX 01 00:03:10
  TRACK 06 AUDIO
    TITLE "2:cjc133_0003"
    INDEX 01 00:03:57
  TRACK 07 AUDIO
    TITLE "2:cjc133_0004"
    INDEX 01 00:05:59
  TRACK 08 AUDIO
    TITLE "2:cjc133_0005"
    INDEX 01 00:08:36
  TRACK 09 AUDIO
    TITLE "0:"
    INDEX 01 00:10:21
  TRACK 10 AUDIO
    TITLE "2:cjc133_0006"
    INDEX 01 00:10:68
  TRACK 11 AUDIO
    TITLE "2:cjc133_0007"
    INDEX 01 00:13:06
  TRACK 12 AUDIO
    TITLE "2:cjc133_0008"
    INDEX 01 00:15:64
  TRACK 13 AUDIO
    TITLE "0:"
    INDEX 01 00:17:53
  TRACK 14 AUDIO
    TITLE "2:cjc133_0009"
    INDEX 01 00:18:25
  TRACK 15 AUDIO
    TITLE "2:cjc133_0010"
    INDEX 01 00:20:67
  TRACK 16 AUDIO
    TITLE "2:cjc133_0011"
    INDEX 01 00:23:57
  TRACK 17 AUDIO
    TITLE "0:"
    INDEX 01 00:25:56
  TRACK 18 AUDIO
    TITLE "2:cjc133_0012"
    INDEX 01 00:26:26
  TRACK 19 AUDIO
    TITLE "2:cjc133_0013"
    INDEX 01 00:29:27
  TRACK 20 AUDIO
    TITLE "2:cjc133_0014"
    INDEX 01 00:32:25
  TRACK 21 AUDIO
    TITLE "0:"
    INDEX 01 00:34:34
  TRACK 22 AUDIO
    TITLE "2:cjc133_0015"
    INDEX 01 00:35:14
  TRACK 23 AUDIO
    TITLE "2:cjc133_0016"
    INDEX 01 00:38:14
  TRACK 24 AUDIO
    TITLE "2:cjc133_0017"
    INDEX 01 00:41:36
  TRACK 25 AUDIO
    TITLE "0:"
    INDEX 01 00:43:64
  TRACK 26 AUDIO
    TITLE "2:cjc133_0018"
    INDEX 01 00:44:40
  TRACK 27 AUDIO
    TITLE "2:cjc133_0019"
    INDEX 01 00:45:67
  TRACK 28 AUDIO
    TITLE "2:cjc133_0020"
    INDEX 01 00:48:46
  TRACK 29 AUDIO
    TITLE "0:"
    INDEX 01 00:50:31
  TRACK 30 AUDIO
    TITLE "2:cjc133_0021"
    INDEX 01 00:51:07
  TRACK 31 AUDIO
    TITLE "2:cjc133_0022"
    INDEX 01 00:52:24
  TRACK 32 AUDIO
    TITLE "2:cjc133_0023"
    INDEX 01 00:54:72
  TRACK 33 AUDIO
    TITLE "0:"
    INDEX 01 00:56:49
  TRACK 34 AUDIO
    TITLE "2:cjc133_0024"
    INDEX 01 00:57:19
  TRACK 35 AUDIO
    TITLE "2:cjc133_0025"
    INDEX 01 00:58:48
  TRACK 36 AUDIO
    TITLE "2:cjc133_0026"
    INDEX 01 01:01:23
  TRACK 37 AUDIO
    TITLE "0:"
    INDEX 01 01:03:00
  TRACK 38 AUDIO
    TITLE "2:cjc133_0027"
    INDEX 01 01:03:53
  TRACK 39 AUDIO
    TITLE "2:cjc133_0028"
    INDEX 01 01:05:09
  TRACK 40 AUDIO
    TITLE "2:cjc133_0029"
    INDEX 01 01:07:59
  TRACK 41 AUDIO
    TITLE "0:"
    INDEX 01 01:09:46
  TRACK 42 AUDIO
    TITLE "2:cjc133_0030"
    INDEX 01 01:10:20
  TRACK 43 AUDIO
    TITLE "2:cjc133_0031"
    INDEX 01 01:11:39
  TRACK 44 AUDIO
    TITLE "2:cjc133_0032"
    INDEX 01 01:14:35
  TRACK 45 AUDIO
    TITLE "0:"
    INDEX 01 01:16:42
  TRACK 46 AUDIO
    TITLE "2:cjc133_0033"
    INDEX 01 01:17:20
  TRACK 47 AUDIO
    TITLE "2:cjc133_0034"
    INDEX 01 01:18:37
  TRACK 48 AUDIO
    TITLE "2:cjc133_0035"
    INDEX 01 01:21:35
  TRACK 49 AUDIO
    TITLE "0:"
    INDEX 01 01:23:40
  TRACK 50 AUDIO
    TITLE "2:cjc133_0036"
    INDEX 01 01:24:16
  TRACK 51 AUDIO
    TITLE "2:cjc133_0037"
    INDEX 01 01:25:57
  TRACK 52 AUDIO
    TITLE "2:cjc133_0038"
    INDEX 01 01:28:49
  TRACK 53 AUDIO
    TITLE "0:"
    INDEX 01 01:30:54
  TRACK 54 AUDIO
    TITLE "2:cjc133_0039"
    INDEX 01 01:31:30
  TRACK 55 AUDIO
    TITLE "2:cjc133_0040"
    INDEX 01 01:32:47
  TRACK 56 AUDIO
    TITLE "2:cjc133_0041"
    INDEX 01 01:35:22
  TRACK 57 AUDIO
    TITLE "0:"
    INDEX 01 01:37:03
  TRACK 58 AUDIO
    TITLE "2:cjc133_0042"
    INDEX 01 01:37:54
  TRACK 59 AUDIO
    TITLE "2:cjc133_0043"
    INDEX 01 01:39:19
  TRACK 60 AUDIO
    TITLE "2:cjc133_0044"
    INDEX 01 01:42:00
  TRACK 61 AUDIO
    TITLE "0:"
    INDEX 01 01:43:58
  TRACK 62 AUDIO
    TITLE "2:cjc133_0045"
    INDEX 01 01:44:38
  TRACK 63 AUDIO
    TITLE "2:cjc133_0046"
    INDEX 01 01:45:63
  TRACK 64 AUDIO
    TITLE "2:cjc133_0047"
    INDEX 01 01:48:52
  TRACK 65 AUDIO
    TITLE "0:"
    INDEX 01 01:50:45
